<svg width="48" height="48" viewBox="0 0 48 48" fill="none" xmlns="http://www.w3.org/2000/svg">
<g clip-path="url(#clip0_712_390)">
<circle cx="24" cy="24" r="23.5" stroke="currentColor"/>
<g clip-path="url(#clip1_712_390)">
<path d="M24 13.3433C27.471 13.3433 27.8827 13.3563 29.2542 13.4191C32.7772 13.5794 34.4227 15.251 34.5831 18.748C34.6459 20.1184 34.6578 20.5301 34.6578 24.0011C34.6578 27.4732 34.6448 27.8838 34.5831 29.2542C34.4217 32.7479 32.7804 34.4227 29.2542 34.5831C27.8827 34.6459 27.4732 34.6589 24 34.6589C20.529 34.6589 20.1173 34.6459 18.7469 34.5831C15.2153 34.4217 13.5783 32.7425 13.418 29.2531C13.3552 27.8827 13.3422 27.4721 13.3422 24C13.3422 20.529 13.3563 20.1184 13.418 18.7469C13.5794 15.251 15.2207 13.5783 18.7469 13.418C20.1184 13.3563 20.529 13.3433 24 13.3433ZM24 11C20.4694 11 20.0274 11.0152 18.6408 11.078C13.9196 11.2947 11.2958 13.9142 11.0791 18.6397C11.0152 20.0274 11 20.4694 11 24C11 27.5306 11.0152 27.9737 11.078 29.3603C11.2947 34.0815 13.9142 36.7053 18.6397 36.922C20.0274 36.9848 20.4694 37 24 37C27.5306 37 27.9737 36.9848 29.3603 36.922C34.0772 36.7053 36.7075 34.0858 36.9209 29.3603C36.9848 27.9737 37 27.5306 37 24C37 20.4694 36.9848 20.0274 36.922 18.6408C36.7097 13.9239 34.0869 11.2958 29.3614 11.0791C27.9737 11.0152 27.5306 11 24 11ZM24 17.3245C20.3134 17.3245 17.3245 20.3134 17.3245 24C17.3245 27.6866 20.3134 30.6766 24 30.6766C27.6866 30.6766 30.6755 27.6877 30.6755 24C30.6755 20.3134 27.6866 17.3245 24 17.3245ZM24 28.3333C21.6069 28.3333 19.6667 26.3942 19.6667 24C19.6667 21.6069 21.6069 19.6667 24 19.6667C26.3931 19.6667 28.3333 21.6069 28.3333 24C28.3333 26.3942 26.3931 28.3333 24 28.3333ZM30.9398 15.5013C30.0775 15.5013 29.3788 16.2 29.3788 17.0612C29.3788 17.9225 30.0775 18.6213 30.9398 18.6213C31.8011 18.6213 32.4988 17.9225 32.4988 17.0612C32.4988 16.2 31.8011 15.5013 30.9398 15.5013Z" fill="currentColor"/>
</g>
</g>
<defs>
<clipPath id="clip0_712_390">
<rect width="48" height="48" fill="white"/>
</clipPath>
<clipPath id="clip1_712_390">
<rect width="26" height="26" fill="white" transform="translate(11 11)"/>
</clipPath>
</defs>
</svg>
