<svg width="48" height="48" viewBox="0 0 48 48" fill="none" xmlns="http://www.w3.org/2000/svg">
<g clip-path="url(#clip0_712_392)">
<circle cx="24" cy="24" r="23.5" stroke="currentColor"/>
<g clip-path="url(#clip1_712_392)">
<path d="M37 15.9367C36.0434 16.3614 35.0153 16.6474 33.9363 16.7763C35.0381 16.1166 35.8842 15.0711 36.2818 13.8253C35.2515 14.4363 34.1097 14.8805 32.8942 15.1199C31.9224 14.0831 30.5347 13.4353 29.0007 13.4353C25.5567 13.4353 23.0261 16.6485 23.8039 19.9841C19.372 19.762 15.4417 17.6386 12.8103 14.4114C11.4128 16.8088 12.0855 19.9451 14.4602 21.5332C13.587 21.5051 12.7637 21.2656 12.0454 20.8659C11.9869 23.337 13.7582 25.6488 16.3235 26.1634C15.5728 26.3671 14.7505 26.4147 13.9142 26.2544C14.5923 28.3734 16.5618 29.915 18.8975 29.9583C16.655 31.7166 13.8297 32.502 11 32.1683C13.3606 33.6817 16.1653 34.5646 19.177 34.5646C29.0808 34.5646 34.6763 26.2002 34.3383 18.6981C35.3804 17.9452 36.285 17.006 37 15.9367Z" fill="currentColor"/>
</g>
</g>
<defs>
<clipPath id="clip0_712_392">
<rect width="48" height="48" fill="white"/>
</clipPath>
<clipPath id="clip1_712_392">
<rect width="26" height="26" fill="white" transform="translate(11 11)"/>
</clipPath>
</defs>
</svg>
